HIERARCHY
ROOT hips
{
  OFFSET 0 10.6860622 2.3727825e-15
  CHANNELS 6 Xposition Yposition Zposition Yrotation Xrotation Zrotation
  JOINT leftUpperLeg
  {
    OFFSET 0.6642549969 -0.9402397400000004 0
    CHANNELS 3 Yrotation Xrotation Zrotation
    JOINT leftLowerLeg
    {
      OFFSET 0 -3.997221335632195 0
      CHANNELS 3 Yrotation Xrotation Zrotation
      JOINT leftFoot
      {
        OFFSET -0.13777839790000004 -4.6145792000000005 -0.22186036399999998
        CHANNELS 3 Yrotation Xrotation Zrotation
        JOINT leftToes
        {
          OFFSET -0.03777410834999995 -0.9130806927000008 0.85230013
          CHANNELS 3 Yrotation Xrotation Zrotation
          End Site
          {
            OFFSET -0.03777410834999995 -0.9130806927000008 0.85230013
          }
        }
      }
    }
  }
  JOINT rightUpperLeg
  {
    OFFSET -0.6642778626 -0.9402397400000004 0
    CHANNELS 3 Yrotation Xrotation Zrotation
    JOINT rightLowerLeg
    {
      OFFSET 0 -3.997221452859387 0
      CHANNELS 3 Yrotation Xrotation Zrotation
      JOINT rightFoot
      {
        OFFSET 0.1377926176 -4.6145792000000005 -0.22185782299999995
        CHANNELS 3 Yrotation Xrotation Zrotation
        JOINT rightToes
        {
          OFFSET 0.037780746850000047 -0.9130806927000008 0.85230167
          CHANNELS 3 Yrotation Xrotation Zrotation
          End Site
          {
            OFFSET 0.037780746850000047 -0.9130806927000008 0.85230167
          }
        }
      }
    }
  }
  JOINT spine
  {
    OFFSET 0 0.13988381660000015 0
    CHANNELS 3 Yrotation Xrotation Zrotation
    JOINT chest
    {
      OFFSET 0 0.6191039003973773 0
      CHANNELS 3 Yrotation Xrotation Zrotation
      JOINT upperChest
      {
        OFFSET 0 0.9855186130586943 0
        CHANNELS 3 Yrotation Xrotation Zrotation
        JOINT leftShoulder
        {
          OFFSET 0.1807663869 1.5087829790000005 0
          CHANNELS 3 Yrotation Xrotation Zrotation
          JOINT leftUpperArm
          {
            OFFSET 0.5985063006419806 0 0
            CHANNELS 3 Yrotation Xrotation Zrotation
            JOINT leftLowerArm
            {
              OFFSET 2.2993332369501065 0 0
              CHANNELS 3 Yrotation Xrotation Zrotation
              JOINT leftHand
              {
                OFFSET 2.395047042602395 0 0
                CHANNELS 3 Yrotation Xrotation Zrotation
                JOINT leftIndexProximal
                {
                  OFFSET 0.5766295810000004 0.04556643899499946 0.17265095988184
                  CHANNELS 3 Yrotation Xrotation Zrotation
                  JOINT leftIndexIntermediate
                  {
                    OFFSET 0.2957229000000008 -0.019352197700001517 -0.007932640616999987
                    CHANNELS 3 Yrotation Xrotation Zrotation
                    JOINT leftIndexDistal
                    {
                      OFFSET 0.19008243099999922 -0.012484908149998475 -0.002786250786000012
                      CHANNELS 3 Yrotation Xrotation Zrotation
                      End Site
                      {
                        OFFSET 0.19008243099999922 -0.012484908149998475 -0.002786250786000012
                      }
                    }
                  }
                }
                JOINT leftMiddleProximal
                {
                  OFFSET 0.5834975091000001 0.0524350405149987 0.02204081888183999
                  CHANNELS 3 Yrotation Xrotation Zrotation
                  JOINT leftMiddleIntermediate
                  {
                    OFFSET 0.33880573540000003 -0.019871473270000717 -0.00000971183179999946
                    CHANNELS 3 Yrotation Xrotation Zrotation
                    JOINT leftMiddleDistal
                    {
                      OFFSET 0.20676022730000088 -0.012221336379999448 0.0001471936708000235
                      CHANNELS 3 Yrotation Xrotation Zrotation
                      End Site
                      {
                        OFFSET 0.20676022730000088 -0.012221336379999448 0.0001471936708000235
                      }
                    }
                  }
                }
                JOINT leftLittleProximal
                {
                  OFFSET 0.5344154683999995 -0.012880921405001189 -0.24414037221816004
                  CHANNELS 3 Yrotation Xrotation Zrotation
                  JOINT leftLittleIntermediate
                  {
                    OFFSET 0.21758961730000093 -0.011650919939999227 0.011893592810000034
                    CHANNELS 3 Yrotation Xrotation Zrotation
                    JOINT leftLittleDistal
                    {
                      OFFSET 0.1475273964999999 -0.008152365682999818 0.006001092492999946
                      CHANNELS 3 Yrotation Xrotation Zrotation
                      End Site
                      {
                        OFFSET 0.1475273964999999 -0.008152365682999818 0.006001092492999946
                      }
                    }
                  }
                }
                JOINT leftRingProximal
                {
                  OFFSET 0.5799399463000003 0.026911854694997794 -0.12150566991816003
                  CHANNELS 3 Yrotation Xrotation Zrotation
                  JOINT leftRingIntermediate
                  {
                    OFFSET 0.26167887460000006 -0.013480186499999602 0.010996293000000053
                    CHANNELS 3 Yrotation Xrotation Zrotation
                    JOINT leftRingDistal
                    {
                      OFFSET 0.17667108799999987 -0.008990287899999228 0.0055541023999999065
                      CHANNELS 3 Yrotation Xrotation Zrotation
                      End Site
                      {
                        OFFSET 0.17667108799999987 -0.008990287899999228 0.0055541023999999065
                      }
                    }
                  }
                }
                JOINT leftThumbProximal
                {
                  OFFSET 0.11018806699999972 -0.09448718900500053 0.17047963138184
                  CHANNELS 3 Yrotation Xrotation Zrotation
                  JOINT leftThumbIntermediate
                  {
                    OFFSET 0.31062601459999983 -0.08126270900000132 0.15443142000000007
                    CHANNELS 3 Yrotation Xrotation Zrotation
                    JOINT leftThumbDistal
                    {
                      OFFSET 0.21627175790000086 -0.08833193599999878 0.018771167799999988
                      CHANNELS 3 Yrotation Xrotation Zrotation
                      End Site
                      {
                        OFFSET 0.21627175790000086 -0.08833193599999878 0.018771167799999988
                      }
                    }
                  }
                }
              }
            }
          }
        }
        JOINT neck
        {
          OFFSET 0 1.5463305265074576 0
          CHANNELS 3 Yrotation Xrotation Zrotation
          JOINT head
          {
            OFFSET 0 0.8456443600000344 0
            CHANNELS 3 Yrotation Xrotation Zrotation
            JOINT leftEye
            {
              OFFSET 0.30408573140000006 0.5104519199999995 0.1276382305
              CHANNELS 3 Yrotation Xrotation Zrotation
              End Site
              {
                OFFSET 0.30408573140000006 0.5104519199999995 0.1276382305
              }
            }
            JOINT rightEye
            {
              OFFSET -0.30409491089999996 0.5104519199999995 0.1276379445
              CHANNELS 3 Yrotation Xrotation Zrotation
              End Site
              {
                OFFSET -0.30409491089999996 0.5104519199999995 0.1276379445
              }
            }
            JOINT jaw
            {
              OFFSET -3.155239131000001e-7 -0.11984121820000082 0.60178107
              CHANNELS 3 Yrotation Xrotation Zrotation
              End Site
              {
                OFFSET -3.155239131000001e-7 -0.11984121820000082 0.60178107
              }
            }
          }
        }
        JOINT rightShoulder
        {
          OFFSET -0.1807303465 1.5087829790000005 0
          CHANNELS 3 Yrotation Xrotation Zrotation
          JOINT rightUpperArm
          {
            OFFSET -0.5985063796536958 0 0
            CHANNELS 3 Yrotation Xrotation Zrotation
            JOINT rightLowerArm
            {
              OFFSET -2.2993322059002854 0 0
              CHANNELS 3 Yrotation Xrotation Zrotation
              JOINT rightHand
              {
                OFFSET -2.395045314457259 0 0
                CHANNELS 3 Yrotation Xrotation Zrotation
                JOINT rightIndexProximal
                {
                  OFFSET -0.5764487688300002 0.0441371204405987 0.17361932004999997
                  CHANNELS 3 Yrotation Xrotation Zrotation
                  JOINT rightIndexIntermediate
                  {
                    OFFSET -0.29573011380000047 -0.01934826376999843 -0.007698921482999974
                    CHANNELS 3 Yrotation Xrotation Zrotation
                    JOINT rightIndexDistal
                    {
                      OFFSET -0.19008373999999884 -0.012503266380000655 -0.0026365778999999897
                      CHANNELS 3 Yrotation Xrotation Zrotation
                      End Site
                      {
                        OFFSET -0.19008373999999884 -0.012503266380000655 -0.0026365778999999897
                      }
                    }
                  }
                }
                JOINT rightMiddleProximal
                {
                  OFFSET -0.5834852037300005 0.05211639405060153 0.02307162440000001
                  CHANNELS 3 Yrotation Xrotation Zrotation
                  JOINT rightMiddleIntermediate
                  {
                    OFFSET -0.33880114510000003 -0.019952774050000954 0.0002455003561999819
                    CHANNELS 3 Yrotation Xrotation Zrotation
                    JOINT rightMiddleDistal
                    {
                      OFFSET -0.20675694929999955 -0.012273788999999091 0.00030209124000002766
                      CHANNELS 3 Yrotation Xrotation Zrotation
                      End Site
                      {
                        OFFSET -0.20675694929999955 -0.012273788999999091 0.00030209124000002766
                      }
                    }
                  }
                }
                JOINT rightLittleProximal
                {
                  OFFSET -0.5346811737299992 -0.011214256288399227 -0.24363941305000003
                  CHANNELS 3 Yrotation Xrotation Zrotation
                  JOINT rightLittleIntermediate
                  {
                    OFFSET -0.21757715980000092 -0.011771559690000988 0.01201554387
                    CHANNELS 3 Yrotation Xrotation Zrotation
                    JOINT rightLittleDistal
                    {
                      OFFSET -0.1475201849000004 -0.00822055339600003 0.006082065407000015
                      CHANNELS 3 Yrotation Xrotation Zrotation
                      End Site
                      {
                        OFFSET -0.1475201849000004 -0.00822055339600003 0.006082065407000015
                      }
                    }
                  }
                }
                JOINT rightRingProximal
                {
                  OFFSET -0.5800810755299999 0.027657985680600072 -0.12066365025000003
                  CHANNELS 3 Yrotation Xrotation Zrotation
                  JOINT rightRingIntermediate
                  {
                    OFFSET -0.26166445029999974 -0.013623118409999302 0.011164098990000045
                    CHANNELS 3 Yrotation Xrotation Zrotation
                    JOINT rightRingDistal
                    {
                      OFFSET -0.17666387530000027 -0.009072900100000503 0.005668185599999959
                      CHANNELS 3 Yrotation Xrotation Zrotation
                      End Site
                      {
                        OFFSET -0.17666387530000027 -0.009072900100000503 0.005668185599999959
                      }
                    }
                  }
                }
                JOINT rightThumbProximal
                {
                  OFFSET -0.10997596379000074 -0.09577489355940072 0.16989765924999997
                  CHANNELS 3 Yrotation Xrotation Zrotation
                  JOINT rightThumbIntermediate
                  {
                    OFFSET -0.31036620999999986 -0.08229339117999834 0.15440884469999996
                    CHANNELS 3 Yrotation Xrotation Zrotation
                    JOINT rightThumbDistal
                    {
                      OFFSET -0.21631306399999906 -0.08825326400000111 0.018656797720000014
                      CHANNELS 3 Yrotation Xrotation Zrotation
                      End Site
                      {
                        OFFSET -0.21631306399999906 -0.08825326400000111 0.018656797720000014
                      }
                    }
                  }
                }
              }
            }
          }
        }
      }
    }
  }
}
MOTION
Frames: 8
Frame Time: 0.03333333333333333
5.397374748987444 -5.507019164838216 3.120726035158252 48.276288404294604 -47.92763191351511 140.22045810333077 16.048240502770835 -74.44968793999048 16.97062142697684 1.7263068803014703 15.758310116628888 9.013450762398747 0 0 0 0 0 0 23.14102618155054 -74.70340217323742 -67.73928160163278 121.8160337258856 64.62429967841021 107.69093098369558 1.3442049272441183 11.898664486690448 -23.345768790365536 0 0 0 15.73721203658488 2.8251194155177535 1.9762455086557018 5.60518936657691 37.38937109678734 3.0674887453647988 0 0 0 -2.195145023071293 0.6909667422669301 -48.85691190578364 -23.30032590354791 51.197512749660916 -29.59780251847257 -4.923774777343431 35.723978519808846 0.9117675012115457 -12.157878839205388 -11.829730975786834 8.165531151353733 0 0 0 0 0 0 0 0 0 0 0 0 0 0 0 0 0 0 0 0 0 0 0 0 0 0 0 0 0 0 0 0 0 0 0 0 0 0 0 0 0 0 0 0 0 0 15.520999340947057 0 0.00013800032446947537 -0.15911475729958569 -0.09966438003567507 0 0 0 0 0 0 0 0 0 28.733778210939203 8.749041468204483 -14.184558784431667 -27.533373324415884 -27.493492641832212 85.85995349851939 33.34682119436935 11.205770769291428 36.177375274614235 -20.81175915690511 -28.687881102685203 28.077505425580178 0 0 0 0 0 0 0 0 0 0 0 0 0 0 0 0 0 0 0 0 0 0 0 0 0 0 0 0 0 0 0 0 0 0 0 0 0 0 0 0 0 0 0 0 0
5.397374748987444 -5.507019164838216 3.120726035158252 48.276288404294604 -47.92763191351511 140.22045810333077 16.048240502770835 -74.44968793999048 16.97062142697684 1.7263068803014703 15.758310116628888 9.013450762398747 0 0 0 0 0 0 21.92803140382103 -74.55965982502545 -66.68849763111936 121.76534889907664 64.60905941595414 107.51430134461779 1.3442049272441183 11.898664486690448 -23.345768790365536 0 0 0 15.733681789432817 2.5140975276031305 1.8887279872558342 5.668801340835484 38.19163838406458 3.1689814738002107 0 0 0 -2.33017067937082 0.3913332882747861 -47.98452458548419 -24.326394210350653 50.83215536829579 -30.944205122291883 -5.0787647884667155 35.72851758598452 0.9965729274537432 -11.973811934031666 -12.04280314305716 8.216020403249708 0 0 0 0 0 0 0 0 0 0 0 0 0 0 0 0 0 0 0 0 0 0 0 0 0 0 0 0 0 0 0 0 0 0 0 0 0 0 0 0 0 0 0 0 0 0 15.520999340947057 0 0.00013800032446947537 -0.15911475729958569 -0.09966438003567507 0 0 0 0 0 0 0 0 0 28.583988458730616 8.362836948294293 -14.637563556769736 -27.534777488005158 -27.431940496334906 85.95895113672884 33.44916408262951 11.135839151716326 36.26574902940345 -20.29170475401019 -28.962569974460582 28.16140265603995 0 0 0 0 0 0 0 0 0 0 0 0 0 0 0 0 0 0 0 0 0 0 0 0 0 0 0 0 0 0 0 0 0 0 0 0 0 0 0 0 0 0 0 0 0
5.397374748987444 -5.507019164838216 3.120726035158252 48.276288404294604 -47.92763191351511 140.22045810333077 16.048240502770835 -74.44968793999048 16.97062142697684 1.7263068803014703 15.758310116628888 9.013450762398747 0 0 0 0 0 0 20.736202885453775 -74.41011913243783 -65.6589410062386 121.7147591137091 64.5937799295761 107.33776569004645 1.3442049272441183 11.898664486690448 -23.345768790365536 0 0 0 15.730626999479966 2.2030788379215407 1.801252106747017 5.734940307490825 38.993649780643935 3.2727386305243145 0 0 0 -2.4697018954903145 0.09386987306760855 -47.11169998980315 -25.330326029002848 50.451932807449616 -32.26912314697977 -5.233753522115816 35.73324202318243 1.0813666537758664 -11.789793425658631 -12.256026141485235 8.265848580326603 0 0 0 0 0 0 0 0 0 0 0 0 0 0 0 0 0 0 0 0 0 0 0 0 0 0 0 0 0 0 0 0 0 0 0 0 0 0 0 0 0 0 0 0 0 0 15.520999340947057 0 0.00013800032446947537 -0.15911475729958569 -0.09966438003567507 0 0 0 0 0 0 0 0 0 28.43744098442162 7.975513802405207 -15.089050794577137 -27.53604531837725 -27.37038612112471 86.05786984493277 33.55135927510896 11.065748601815478 36.35397387564764 -19.77079715075328 -29.237893765773094 28.242669630797202 0 0 0 0 0 0 0 0 0 0 0 0 0 0 0 0 0 0 0 0 0 0 0 0 0 0 0 0 0 0 0 0 0 0 0 0 0 0 0 0 0 0 0 0 0
5.397374748987444 -5.507019164838216 3.120726035158252 48.276288404294604 -47.92763191351511 140.22045810333077 16.048240502770835 -74.44968793999048 16.97062142697684 1.7263068803014703 15.758310116628888 9.013450762398747 0 0 0 0 0 0 19.56578930152579 -74.25492771522576 -64.6508440646958 121.66433224936816 64.57841355127024 107.16138352841966 1.3442049272441183 11.898664486690448 -23.345768790365536 0 0 0 15.728048004210885 1.8920704130648698 1.7138135406780046 5.803715438050904 39.79532973120175 3.37886869111682 0 0 0 -2.613691691731372 -0.2013155442549638 -46.23848052192772 -26.311799186767146 50.05737638520352 -33.572246478625736 -5.388738887247744 35.73814344970016 1.166146753225418 -11.605822979586044 -12.46939891858958 8.315011962045887 0 0 0 0 0 0 0 0 0 0 0 0 0 0 0 0 0 0 0 0 0 0 0 0 0 0 0 0 0 0 0 0 0 0 0 0 0 0 0 0 0 0 0 0 0 0 15.520999340947057 0 0.00013800032446947537 -0.15911475729958569 -0.09966438003567507 0 0 0 0 0 0 0 0 0 28.294145296657092 7.587129096293567 -15.539055871632865 -27.53720971548669 -27.308831370669136 86.15675906658045 33.653423890760024 10.995506956798241 36.442042717565464 -19.24902135604253 -29.51380118587388 28.321259788469202 0 0 0 0 0 0 0 0 0 0 0 0 0 0 0 0 0 0 0 0 0 0 0 0 0 0 0 0 0 0 0 0 0 0 0 0 0 0 0 0 0 0 0 0 0
5.397374748987444 -5.507019164838216 3.120726035158252 48.276288404294604 -47.92763191351511 140.22045810333077 16.048240502770835 -74.44968793999048 16.97062142697684 1.7263068803014703 15.758310116628888 9.013450762398747 0 0 0 0 0 0 18.416932324945183 -74.09425822919893 -63.6643400424783 121.61405655531195 64.56298427988148 106.98514864605616 1.3442049272441183 11.898664486690448 -23.345768790365536 0 0 0 15.725946660990124 1.5810807015364228 1.6264098831551101 5.87523558600005 40.59659696086513 3.4874875333798503 0 0 0 -2.7620861402579426 -0.4941159364925551 -45.36496546807372 -27.270539815674265 49.648972197671554 -34.85328622551287 -5.54372167787658 35.743251351680826 1.2509130860913045 -11.421896843201802 -12.682912552674376 8.363510940054917 0 0 0 0 0 0 0 0 0 0 0 0 0 0 0 0 0 0 0 0 0 0 0 0 0 0 0 0 0 0 0 0 0 0 0 0 0 0 0 0 0 0 0 0 0 0 15.520999340947057 0 0.00013800032446947537 -0.15911475729958569 -0.09966438003567507 0 0 0 0 0 0 0 0 0 28.15407143254107 7.1977238897868965 -15.987581617075396 -27.538245017900035 -27.247272333273 86.25557875961708 33.755364452489594 10.925115088952865 36.52997839075078 -18.726366733916215 -29.79025226818553 28.397146905031303 0 0 0 0 0 0 0 0 0 0 0 0 0 0 0 0 0 0 0 0 0 0 0 0 0 0 0 0 0 0 0 0 0 0 0 0 0 0 0 0 0 0 0 0 0
5.397374748987444 -5.507019164838216 3.120726035158252 48.276288404294604 -47.92763191351511 140.22045810333077 16.048240502770835 -74.44968793999048 16.97062142697684 1.7263068803014703 15.758310116628888 9.013450762398747 0 0 0 0 0 0 17.289734890378217 -73.92833126432068 -62.69956815313744 121.56390881691354 64.54748427460213 106.8090278377282 1.3442049272441183 11.898664486690448 -23.345768790365536 0 0 0 15.724313402532308 1.270110141351855 1.5390357491343174 5.949617365182025 41.39736395486498 3.5987099962974507 0 0 0 -2.9148348734685623 -0.7844276019373108 -44.49122168995394 -28.206384919643426 49.22725549210279 -36.11208235352217 -5.6986983130892135 35.74853210560917 1.3356644741977775 -11.238008855007893 -12.896558977997909 8.411344767068837 0 0 0 0 0 0 0 0 0 0 0 0 0 0 0 0 0 0 0 0 0 0 0 0 0 0 0 0 0 0 0 0 0 0 0 0 0 0 0 0 0 0 0 0 0 0 15.520999340947057 0 0.00013800032446947537 -0.15911475729958569 -0.09966438003567507 0 0 0 0 0 0 0 0 0 28.01723189393891 6.807351701537467 -16.43464780175215 -27.539173862636417 -27.185714703870076 86.35435767317865 33.85716237541871 10.854570391273867 36.61775642099534 -18.202845804776434 -30.06721456707996 28.47031083554983 0 0 0 0 0 0 0 0 0 0 0 0 0 0 0 0 0 0 0 0 0 0 0 0 0 0 0 0 0 0 0 0 0 0 0 0 0 0 0 0 0 0 0 0 0
5.397374748987444 -5.507019164838216 3.120726035158252 48.276288404294604 -47.92763191351511 140.22045810333077 16.048240502770835 -74.44968793999048 16.97062142697684 1.7263068803014703 15.758310116628888 9.013450762398747 0 0 0 0 0 0 16.184229114512256 -73.75727801223128 -61.756517305820644 121.51386171377631 64.53194542257683 106.63300934165376 1.3442049272441183 11.898664486690448 -23.345768790365536 0 0 0 15.723163822851214 0.9591693122598939 1.4516883231491906 6.0269876449255095 42.19754099806625 3.712666395250562 0 0 0 -3.071879744915263 -1.0721476307650937 -43.61733990677977 -29.11924266047089 48.79271891304146 -37.34853949082537 -5.853671048832479 35.75399837053581 1.4204007509009353 -11.054160243425219 -13.110338876738615 8.458510587840687 0 0 0 0 0 0 0 0 0 0 0 0 0 0 0 0 0 0 0 0 0 0 0 0 0 0 0 0 0 0 0 0 0 0 0 0 0 0 0 0 0 0 0 0 0 0 15.520999340947057 0 0.00013800032446947537 -0.15911475729958569 -0.09966438003567507 0 0 0 0 0 0 0 0 0 27.883605850854444 6.416060434120472 -16.880280258991128 -27.539972321183694 -27.12415457203533 86.45307019266906 33.95882225221485 10.783871996299172 36.705388549081775 -17.678444170117512 -30.344639509072376 28.54072147475042 0 0 0 0 0 0 0 0 0 0 0 0 0 0 0 0 0 0 0 0 0 0 0 0 0 0 0 0 0 0 0 0 0 0 0 0 0 0 0 0 0 0 0 0 0
5.397374748987444 -5.507019164838216 3.120726035158252 48.276288404294604 -47.92763191351511 140.22045810333077 16.048240502770835 -74.44968793999048 16.97062142697684 1.7263068803014703 15.758310116628888 9.013450762398747 0 0 0 0 0 0 15.100328088351294 -73.58126506865085 -60.835133338296 121.4639764945895 64.51632016459503 106.4571409851817 1.3442049272441183 11.898664486690448 -23.345768790365536 0 0 0 15.722482665888492 0.64826068170154 1.3643634093930161 6.107472262447772 42.99704051623465 3.82948934211943 0 0 0 -3.233159349030997 -1.3571758960206903 -42.74338673990461 -30.009038469626077 48.345879686358785 -38.56257559501464 -6.008634973531225 35.75963755924204 1.5051195397583186 -10.870354334132635 -13.324248555281972 8.505011515256085 0 0 0 0 0 0 0 0 0 0 0 0 0 0 0 0 0 0 0 0 0 0 0 0 0 0 0 0 0 0 0 0 0 0 0 0 0 0 0 0 0 0 0 0 0 0 15.520999340947057 0 0.00013800032446947537 -0.15911475729958569 -0.09966438003567507 0 0 0 0 0 0 0 0 0 27.75320860233283 6.023900144215814 -17.324492211170377 -27.540642457801074 -27.062593788390316 86.55170844325032 34.06034482013154 10.713022511871285 36.79286140473924 -17.153161607870995 -30.62249985397977 28.608346484186796 0 0 0 0 0 0 0 0 0 0 0 0 0 0 0 0 0 0 0 0 0 0 0 0 0 0 0 0 0 0 0 0 0 0 0 0 0 0 0 0 0 0 0 0 0
